<?xml version="1.0" standalone="no"?>
<!DOCTYPE svg PUBLIC "-//W3C//DTD SVG 20010904//EN"
 "http://www.w3.org/TR/2001/REC-SVG-20010904/DTD/svg10.dtd">
<svg version="1.0" xmlns="http://www.w3.org/2000/svg"
 width="700.000000pt" height="700.000000pt" viewBox="0 0 700.000000 700.000000"
 preserveAspectRatio="xMidYMid meet">
<metadata>
Created by potrace 1.14, written by Peter Selinger 2001-2017
</metadata>
<g transform="translate(0.000000,700.000000) scale(0.100000,-0.100000)"
fill="#000000" stroke="none">
<path d="M0 3500 l0 -3500 3500 0 3500 0 0 3500 0 3500 -3500 0 -3500 0 0
-3500z m6640 2685 l0 -385 -3140 0 -3140 0 0 385 0 385 3140 0 3140 0 0 -385z
m0 -2690 l0 -1535 -3140 0 -3140 0 0 769 0 768 192 47 c106 26 1514 370 3128
766 1614 395 2941 719 2948 719 9 1 12 -312 12 -1534z m0 -2690 l0 -385 -3140
0 -3140 0 0 385 0 385 3140 0 3140 0 0 -385z"/>
</g>
</svg>
